<?xml version="1.0" encoding="UTF-8"?>
<!DOCTYPE svg PUBLIC "-//W3C//DTD SVG 1.1//EN" "http://www.w3.org/Graphics/SVG/1.1/DTD/svg11.dtd">
<svg width="177mm" height="117mm" viewBox="0 0 17700 11700" version="1.1" xmlns="http://www.w3.org/2000/svg" stroke-width="28.222" stroke-linejoin="round" xml:space="preserve">
 <path fill="rgb(255,255,255)" stroke="none" d="M 8838,11686 L -1,11686 -1,0 17676,0 17676,11686 8838,11686 Z"/>
 <path fill="none" stroke="rgb(179,179,179)" stroke-linejoin="round" d="M 9294,10262 L 1356,10262 1356,1099 17233,1099 17233,10262 9294,10262 Z"/>
 <path fill="none" stroke="rgb(179,179,179)" stroke-linejoin="round" d="M 1356,1098 L 1356,10261"/>
 <path fill="none" stroke="rgb(179,179,179)" stroke-linejoin="round" d="M 2943,1098 L 2943,10261"/>
 <path fill="none" stroke="rgb(179,179,179)" stroke-linejoin="round" d="M 4531,1098 L 4531,10261"/>
 <path fill="none" stroke="rgb(179,179,179)" stroke-linejoin="round" d="M 6119,1098 L 6119,10261"/>
 <path fill="none" stroke="rgb(179,179,179)" stroke-linejoin="round" d="M 7707,1098 L 7707,10261"/>
 <path fill="none" stroke="rgb(179,179,179)" stroke-linejoin="round" d="M 9294,1098 L 9294,10261"/>
 <path fill="none" stroke="rgb(179,179,179)" stroke-linejoin="round" d="M 10881,1098 L 10881,10261"/>
 <path fill="none" stroke="rgb(179,179,179)" stroke-linejoin="round" d="M 12469,1098 L 12469,10261"/>
 <path fill="none" stroke="rgb(179,179,179)" stroke-linejoin="round" d="M 14057,1098 L 14057,10261"/>
 <path fill="none" stroke="rgb(179,179,179)" stroke-linejoin="round" d="M 15645,1098 L 15645,10261"/>
 <path fill="none" stroke="rgb(179,179,179)" stroke-linejoin="round" d="M 17233,1098 L 17233,10261"/>
 <path fill="none" stroke="rgb(179,179,179)" stroke-linejoin="round" d="M 17233,10261 L 1356,10261"/>
 <path fill="none" stroke="rgb(179,179,179)" stroke-linejoin="round" d="M 17233,8951 L 1356,8951"/>
 <path fill="none" stroke="rgb(179,179,179)" stroke-linejoin="round" d="M 17233,7643 L 1356,7643"/>
 <path fill="none" stroke="rgb(179,179,179)" stroke-linejoin="round" d="M 17233,6334 L 1356,6334"/>
 <path fill="none" stroke="rgb(179,179,179)" stroke-linejoin="round" d="M 17233,5024 L 1356,5024"/>
 <path fill="none" stroke="rgb(179,179,179)" stroke-linejoin="round" d="M 17233,3715 L 1356,3715"/>
 <path fill="none" stroke="rgb(179,179,179)" stroke-linejoin="round" d="M 17233,2407 L 1356,2407"/>
 <path fill="none" stroke="rgb(179,179,179)" stroke-linejoin="round" d="M 17233,1097 L 1356,1097"/>
 <path fill="none" stroke="rgb(179,179,179)" stroke-linejoin="round" d="M 1356,10411 L 1356,10261"/>
 <path fill="none" stroke="rgb(179,179,179)" stroke-linejoin="round" d="M 2943,10411 L 2943,10261"/>
 <path fill="none" stroke="rgb(179,179,179)" stroke-linejoin="round" d="M 4531,10411 L 4531,10261"/>
 <path fill="none" stroke="rgb(179,179,179)" stroke-linejoin="round" d="M 6119,10411 L 6119,10261"/>
 <path fill="none" stroke="rgb(179,179,179)" stroke-linejoin="round" d="M 7707,10411 L 7707,10261"/>
 <path fill="none" stroke="rgb(179,179,179)" stroke-linejoin="round" d="M 9294,10411 L 9294,10261"/>
 <path fill="none" stroke="rgb(179,179,179)" stroke-linejoin="round" d="M 10881,10411 L 10881,10261"/>
 <path fill="none" stroke="rgb(179,179,179)" stroke-linejoin="round" d="M 12469,10411 L 12469,10261"/>
 <path fill="none" stroke="rgb(179,179,179)" stroke-linejoin="round" d="M 14057,10411 L 14057,10261"/>
 <path fill="none" stroke="rgb(179,179,179)" stroke-linejoin="round" d="M 15645,10411 L 15645,10261"/>
 <path fill="none" stroke="rgb(179,179,179)" stroke-linejoin="round" d="M 17233,10411 L 17233,10261"/>
 <path fill="none" stroke="rgb(179,179,179)" stroke-linejoin="round" d="M 1356,10261 L 17233,10261"/>
 <path fill="none" stroke="rgb(179,179,179)" stroke-linejoin="round" d="M 1206,10261 L 1356,10261"/>
 <path fill="none" stroke="rgb(179,179,179)" stroke-linejoin="round" d="M 1206,8951 L 1356,8951"/>
 <path fill="none" stroke="rgb(179,179,179)" stroke-linejoin="round" d="M 1206,7643 L 1356,7643"/>
 <path fill="none" stroke="rgb(179,179,179)" stroke-linejoin="round" d="M 1206,6334 L 1356,6334"/>
 <path fill="none" stroke="rgb(179,179,179)" stroke-linejoin="round" d="M 1206,5024 L 1356,5024"/>
 <path fill="none" stroke="rgb(179,179,179)" stroke-linejoin="round" d="M 1206,3715 L 1356,3715"/>
 <path fill="none" stroke="rgb(179,179,179)" stroke-linejoin="round" d="M 1206,2407 L 1356,2407"/>
 <path fill="none" stroke="rgb(179,179,179)" stroke-linejoin="round" d="M 1206,1097 L 1356,1097"/>
 <path fill="none" stroke="rgb(179,179,179)" stroke-linejoin="round" d="M 1356,10261 L 1356,1098"/>
 <path fill="none" stroke="rgb(245,130,32)" stroke-width="127" stroke-linejoin="round" d="M 1356,2190 L 1673,3089 1991,3897 2308,4621 2626,5270 2943,5849 3261,6365 3578,6823 3896,7230 4214,7590 4531,7907 4849,8186 5166,8431 5484,8646 5801,8831 6119,8993 6436,9133 6754,9253 7072,9356 7389,9443 7707,9517 8024,9580 8342,9632 8659,9676 8976,9712 9294,9742 9611,9767 9929,9788 10246,9806 10564,9821 10881,9835 11199,9849 11516,9862 11834,9876 12152,9890 12469,9906 12787,9924 13104,9943 13422,9965 13739,9989 14057,10015 14374,10043 14692,10073 15010,10104 15327,10135 15645,10165 15962,10194 16280,10220 16597,10241 16915,10255 17233,10261"/>
 <text class="TextShape"><tspan class="TextParagraph" font-family="Arial, sans-serif" font-size="353px" font-weight="400"><tspan class="TextPosition" x="1263" y="10829"><tspan fill="rgb(0,0,0)" stroke="none">0</tspan></tspan></tspan></text>
 <text class="TextShape"><tspan class="TextParagraph" font-family="Arial, sans-serif" font-size="353px" font-weight="400"><tspan class="TextPosition" x="2705" y="10829"><tspan fill="rgb(0,0,0)" stroke="none">0.1</tspan></tspan></tspan></text>
 <text class="TextShape"><tspan class="TextParagraph" font-family="Arial, sans-serif" font-size="353px" font-weight="400"><tspan class="TextPosition" x="4293" y="10829"><tspan fill="rgb(0,0,0)" stroke="none">0.2</tspan></tspan></tspan></text>
 <text class="TextShape"><tspan class="TextParagraph" font-family="Arial, sans-serif" font-size="353px" font-weight="400"><tspan class="TextPosition" x="5881" y="10829"><tspan fill="rgb(0,0,0)" stroke="none">0.3</tspan></tspan></tspan></text>
 <text class="TextShape"><tspan class="TextParagraph" font-family="Arial, sans-serif" font-size="353px" font-weight="400"><tspan class="TextPosition" x="7469" y="10829"><tspan fill="rgb(0,0,0)" stroke="none">0.4</tspan></tspan></tspan></text>
 <text class="TextShape"><tspan class="TextParagraph" font-family="Arial, sans-serif" font-size="353px" font-weight="400"><tspan class="TextPosition" x="9057" y="10829"><tspan fill="rgb(0,0,0)" stroke="none">0.5</tspan></tspan></tspan></text>
 <text class="TextShape"><tspan class="TextParagraph" font-family="Arial, sans-serif" font-size="353px" font-weight="400"><tspan class="TextPosition" x="10644" y="10829"><tspan fill="rgb(0,0,0)" stroke="none">0.6</tspan></tspan></tspan></text>
 <text class="TextShape"><tspan class="TextParagraph" font-family="Arial, sans-serif" font-size="353px" font-weight="400"><tspan class="TextPosition" x="12232" y="10829"><tspan fill="rgb(0,0,0)" stroke="none">0.7</tspan></tspan></tspan></text>
 <text class="TextShape"><tspan class="TextParagraph" font-family="Arial, sans-serif" font-size="353px" font-weight="400"><tspan class="TextPosition" x="13820" y="10829"><tspan fill="rgb(0,0,0)" stroke="none">0.8</tspan></tspan></tspan></text>
 <text class="TextShape"><tspan class="TextParagraph" font-family="Arial, sans-serif" font-size="353px" font-weight="400"><tspan class="TextPosition" x="15408" y="10829"><tspan fill="rgb(0,0,0)" stroke="none">0.9</tspan></tspan></tspan></text>
 <text class="TextShape"><tspan class="TextParagraph" font-family="Arial, sans-serif" font-size="353px" font-weight="400"><tspan class="TextPosition" x="17141" y="10829"><tspan fill="rgb(0,0,0)" stroke="none">1</tspan></tspan></tspan></text>
 <text class="TextShape"><tspan class="TextParagraph" font-family="Arial, sans-serif" font-size="353px" font-weight="400"><tspan class="TextPosition" x="921" y="10382"><tspan fill="rgb(0,0,0)" stroke="none">0</tspan></tspan></tspan></text>
 <text class="TextShape"><tspan class="TextParagraph" font-family="Arial, sans-serif" font-size="353px" font-weight="400"><tspan class="TextPosition" x="445" y="9072"><tspan fill="rgb(0,0,0)" stroke="none">0.02</tspan></tspan></tspan></text>
 <text class="TextShape"><tspan class="TextParagraph" font-family="Arial, sans-serif" font-size="353px" font-weight="400"><tspan class="TextPosition" x="445" y="7763"><tspan fill="rgb(0,0,0)" stroke="none">0.04</tspan></tspan></tspan></text>
 <text class="TextShape"><tspan class="TextParagraph" font-family="Arial, sans-serif" font-size="353px" font-weight="400"><tspan class="TextPosition" x="445" y="6454"><tspan fill="rgb(0,0,0)" stroke="none">0.06</tspan></tspan></tspan></text>
 <text class="TextShape"><tspan class="TextParagraph" font-family="Arial, sans-serif" font-size="353px" font-weight="400"><tspan class="TextPosition" x="445" y="5145"><tspan fill="rgb(0,0,0)" stroke="none">0.08</tspan></tspan></tspan></text>
 <text class="TextShape"><tspan class="TextParagraph" font-family="Arial, sans-serif" font-size="353px" font-weight="400"><tspan class="TextPosition" x="630" y="3836"><tspan fill="rgb(0,0,0)" stroke="none">0.1</tspan></tspan></tspan></text>
 <text class="TextShape"><tspan class="TextParagraph" font-family="Arial, sans-serif" font-size="353px" font-weight="400"><tspan class="TextPosition" x="445" y="2527"><tspan fill="rgb(0,0,0)" stroke="none">0.12</tspan></tspan></tspan></text>
 <text class="TextShape"><tspan class="TextParagraph" font-family="Arial, sans-serif" font-size="353px" font-weight="400"><tspan class="TextPosition" x="445" y="1217"><tspan fill="rgb(0,0,0)" stroke="none">0.14</tspan></tspan></tspan></text>
 <path fill="none" stroke="rgb(0,0,0)" stroke-linejoin="round" d="M 8838,783 L 7239,783 7239,185 10436,185 10436,783 8838,783 Z"/>
 <path fill="none" stroke="rgb(245,130,32)" stroke-width="127" stroke-linejoin="round" d="M 7355,483 L 8155,483"/>
 <text class="TextShape"><tspan class="TextParagraph" font-family="Arial, sans-serif" font-size="353px" font-weight="400"><tspan class="TextPosition" x="8255" y="603"><tspan fill="rgb(0,0,0)" stroke="none">p_bad_match</tspan></tspan></tspan></text>
 <text class="TextShape"><tspan class="TextParagraph" font-family="Arial, sans-serif" font-size="318px" font-weight="400"><tspan class="TextPosition" x="8383" y="11513"><tspan fill="rgb(0,0,0)" stroke="none">p_char</tspan></tspan></tspan></text>
</svg>